PathFileType	4	(x/y/z)	S06_P20_T34
DataRate	CameraRate	NumFrames	NumMarkers	Units	OrigDataRate	OrigDataStartFrame	OrigNumFrames
240	240	4	51	mm	240	178	354
Frame#	Time	Sternum			R.Acromium			L.Acromium			Top.Head			R.ASIS			L.ASIS			R.PSIS			L.PSIS			R.Great.Tro			L.Great.Tro			R.Iliac.Crest			L.Iliac.Crest			V.Sacral			R.Thigh.Upper.Post			R.Thigh.Lower.Ant			R.Thigh.Lower.Post			R.Thigh.Upper.Ant			R.Knee.Lat			R.Knee.Med			R.Shank.Upper.Post			R.Shank.Lower.Ant			R.Shank.Lower.Post			R.Shank.Upper.Ant			R.Ankle.Lat			R.Ankle.Med			R.Heel.Upper			R.Heel.Med			R.Heel.Lat			R.Toe.Lat			R.Toe.Med			R.Toe.Tip			L.Thigh.Upper.Post			L.Thigh.Lower.Ant			L.Thigh.Lower.Post			L.Thigh.Upper.Ant			L.Knee.Lat			L.Knee.Med			L.Shank.Upper.Post			L.Shank.Lower.Ant			L.Shank.Lower.Post			L.Shank.Upper.Ant			L.Ankle.Lat			L.Ankle.Med			L.Heel.Upper			L.Heel.Med			L.Heel.Lat			L.Toe.Lat			L.Toe.Med			L.Toe.Tip			Cervical.Spine			Back			
		X1	Y1	Z1	X2	Y2	Z2	X3	Y3	Z3	X4	Y4	Z4	X5	Y5	Z5	X6	Y6	Z6	X7	Y7	Z7	X8	Y8	Z8	X9	Y9	Z9	X10	Y10	Z10	X11	Y11	Z11	X12	Y12	Z12	X13	Y13	Z13	X14	Y14	Z14	X15	Y15	Z15	X16	Y16	Z16	X17	Y17	Z17	X18	Y18	Z18	X19	Y19	Z19	X20	Y20	Z20	X21	Y21	Z21	X22	Y22	Z22	X23	Y23	Z23	X24	Y24	Z24	X25	Y25	Z25	X26	Y26	Z26	X27	Y27	Z27	X28	Y28	Z28	X29	Y29	Z29	X30	Y30	Z30	X31	Y31	Z31	X32	Y32	Z32	X33	Y33	Z33	X34	Y34	Z34	X35	Y35	Z35	X36	Y36	Z36	X37	Y37	Z37	X38	Y38	Z38	X39	Y39	Z39	X40	Y40	Z40	X41	Y41	Z41	X42	Y42	Z42	X43	Y43	Z43	X44	Y44	Z44	X45	Y45	Z45	X46	Y46	Z46	X47	Y47	Z47	X48	Y48	Z48	X49	Y49	Z49	X50	Y50	Z50	X51	Y51	Z51	

178	0.7375	-363.82	1290.1	338.92	-466.32	1500.9	515.92	-498.38	1502.4	164.88	-446.21	1818	336.61	-425.75	1059.4	473.89	-424.79	1052.2	220.77	NaN	NaN	NaN	-625.57	1085.3	301.33	-484.77	993.32	523.63	-511.25	984.53	167.43	-503.25	1139.2	502.95	-493.03	1126.4	183.79	-639.7	1051.8	346.94	-475.63	736.68	507.34	-419.34	658.54	468.74	-487	650.69	485.08	-406.03	746.72	488.56	-466.6	539.19	464.91	-462.07	548.8	337.17	-546.74	320.52	454.69	-498.58	248.43	429.61	-564.89	246.51	436.96	-482.36	321.39	446.77	-555.38	109.22	405.71	-539.72	118.96	318.71	-625.72	74.086	355.49	-617.51	43.582	323.98	-615.9	41.689	389.44	-437.85	35.296	427.82	-414.99	51.821	307.23	-347.63	62.972	353.02	-336.63	767.47	177.27	-261.87	712.28	237.06	-314.64	678.93	188.32	-291.4	802.2	221.93	-304.97	586.27	200.9	-281.71	590.65	322.84	-422.61	398.33	194.02	-387.35	317.07	196.77	-456.05	333.7	205.6	-358.39	381.75	190.36	-470.34	189.98	198.74	-467.63	183.96	290.66	-558.03	169.13	238.64	-562.55	138.52	266.82	-556.86	147.05	206.1	-384.96	97.19	174.42	-373.88	81.611	291.41	-297.22	83.094	244.2	-537.67	1554.9	345.66	-606.35	1287.3	348.31
179	0.74167	-358.44	1290.2	338.9	-460.73	1501	515.89	-493.14	1502.4	164.9	-440.85	1818	336.46	-420.43	1059.2	473.85	-419.43	1052.3	220.7	NaN	NaN	NaN	-620.18	1085.3	301.37	-479.55	993.17	523.68	-505.98	984.72	167.36	-497.73	1139.2	502.98	-487.66	1126.5	183.81	-634.33	1051.9	347	-472.03	736.51	507.05	-416.36	658.08	468.2	-483.97	650.6	484.81	-402.35	746.17	488.01	-464.51	538.91	464.45	-460.31	548.6	336.66	-545.48	320.51	454.38	-497.75	248.27	429.1	-563.9	246.56	436.69	-481.14	321.18	446.32	-555.07	109.35	405.36	-539.43	118.81	318.31	-625.58	74.164	355.32	-617.36	43.585	323.94	-615.82	41.855	389.35	-437.81	35.244	427.75	-414.94	51.336	307.05	-347.55	62.441	352.9	-330.87	767.92	177.68	-256.09	712.77	237.49	-308.95	679.41	188.88	-285.57	802.67	222.23	-298.79	586.76	201.31	-275.77	591.3	323.07	-411.69	395.61	194.58	-374.23	315.39	196.99	-443.28	330.12	206.22	-347.08	380.81	190.55	-453.54	185.8	199.16	-450.21	179.86	291.06	-540.52	162.59	239.42	-543.97	131.84	267.68	-538.74	140.43	206.9	-365.66	95.233	174.52	-353.56	80.187	291.49	-277.26	83.6	243.9	-532.22	1554.9	345.68	-600.85	1287.3	348.48
180	0.74583	-353.04	1290.2	338.87	-455.13	1501	515.86	-487.88	1502.3	164.91	-435.49	1818	336.31	-415.1	1058.9	473.8	-414.05	1052.4	220.61	NaN	NaN	NaN	-614.77	1085.3	301.41	-474.32	992.97	523.74	-500.69	984.87	167.29	-492.17	1139.2	503	-482.29	1126.5	183.83	-628.93	1051.9	347.06	-468.41	736.31	506.75	-413.36	657.59	467.63	-480.92	650.48	484.52	-398.67	745.59	487.45	-462.39	538.62	463.97	-458.56	548.39	336.13	-544.18	320.48	454.07	-496.89	248.09	428.57	-562.89	246.6	436.42	-479.89	320.96	445.85	-554.76	109.48	405	-539.14	118.65	317.87	-625.43	74.241	355.14	-617.19	43.584	323.91	-615.73	42.027	389.25	-437.76	35.2	427.66	-414.88	50.825	306.86	-347.46	61.894	352.77	-325.23	768.23	178.08	-250.46	713.08	237.87	-303.43	679.74	189.43	-279.84	802.98	222.5	-292.8	587.1	201.69	-269.99	591.8	323.25	-400.78	392.83	195.13	-361.12	313.72	197.21	-430.47	326.52	206.84	-335.82	379.84	190.75	-436.6	181.7	199.61	-432.69	175.91	291.51	-522.83	156.19	240.23	-525.21	125.34	268.6	-520.42	133.93	207.75	-346.3	93.395	174.72	-333.21	78.992	291.66	-257.33	84.284	243.71	-526.76	1554.9	345.7	-595.33	1287.2	348.66
181	0.75	-347.63	1290.1	338.84	-449.51	1501	515.83	-482.6	1502.1	164.92	-430.14	1817.9	336.16	-409.74	1058.6	473.75	-408.65	1052.4	220.51	NaN	NaN	NaN	-609.34	1085.3	301.44	-469.1	992.72	523.79	-495.39	984.96	167.21	-486.6	1139	503.01	-476.91	1126.5	183.85	-623.5	1051.9	347.12	-464.77	736.07	506.44	-410.35	657.07	467.03	-477.85	650.33	484.21	-394.97	744.97	486.87	-460.24	538.3	463.47	-456.8	548.17	335.59	-542.85	320.44	453.74	-496	247.91	428.02	-561.84	246.63	436.13	-478.61	320.72	445.35	-554.43	109.61	404.62	-538.83	118.47	317.42	-625.27	74.318	354.96	-617.01	43.58	323.87	-615.65	42.204	389.15	-437.72	35.165	427.56	-414.81	50.291	306.67	-347.36	61.336	352.62	-319.74	768.4	178.47	-244.97	713.22	238.22	-298.09	679.91	189.94	-274.2	803.12	222.75	-286.97	587.31	202.02	-264.38	592.13	323.41	-389.88	390.01	195.67	-348.02	312.08	197.46	-417.63	322.92	207.47	-324.61	378.87	190.94	-419.54	177.7	200.1	-415.08	172.13	292	-504.98	149.93	241.08	-506.29	119.05	269.57	-501.93	127.57	208.65	-326.9	91.691	175.01	-312.87	78.047	291.93	-237.44	85.167	243.62	-521.28	1554.8	345.71	-589.81	1287.2	348.84
